<?xml version="1.0" standalone="no"?>
<!DOCTYPE svg PUBLIC "-//W3C//DTD SVG 20010904//EN"
 "http://www.w3.org/TR/2001/REC-SVG-20010904/DTD/svg10.dtd">
<svg version="1.0" xmlns="http://www.w3.org/2000/svg"
 width="347.000000pt" height="347.000000pt" viewBox="0 0 347.000000 347.000000"
 preserveAspectRatio="xMidYMid meet">
<metadata>
Created by potrace 1.14, written by Peter Selinger 2001-2017
</metadata>
<g transform="translate(0.000000,347.000000) scale(0.100000,-0.100000)"
fill="#000000" stroke="none">
<path d="M1590 3358 c-128 -12 -200 -25 -199 -36 0 -4 60 -58 132 -120 133
-114 154 -131 262 -226 72 -64 448 -391 530 -461 32 -27 63 -55 69 -60 6 -6
135 -118 286 -250 151 -131 295 -257 320 -279 25 -23 75 -66 110 -97 111 -96
254 -220 287 -249 39 -36 40 -31 38 110 -7 339 -98 637 -279 915 -83 126 -235
295 -341 376 -16 13 -32 26 -35 29 -10 12 -135 98 -175 120 -322 182 -669 260
-1005 228z"/>
<path d="M1090 3196 c-157 -56 -392 -191 -485 -278 -20 -19 -20 -19 15 -49 19
-17 85 -74 145 -126 61 -53 139 -121 175 -152 35 -31 105 -92 155 -136 50 -44
120 -105 155 -135 34 -30 72 -63 84 -74 12 -10 43 -37 70 -60 26 -22 56 -48
66 -56 25 -21 149 -131 178 -158 14 -12 46 -40 71 -61 56 -48 79 -68 156 -135
33 -29 137 -120 230 -201 94 -81 186 -162 205 -179 38 -34 167 -146 214 -186
16 -14 34 -30 40 -35 6 -6 81 -71 166 -145 85 -74 157 -137 160 -140 21 -24
210 -180 217 -180 14 0 117 205 157 312 20 54 45 135 56 180 l19 81 -23 21
c-12 12 -54 48 -92 81 -38 33 -71 62 -74 65 -3 3 -52 46 -110 95 -57 50 -111
97 -120 105 -31 29 -96 85 -160 140 -36 30 -67 57 -70 60 -9 9 -93 83 -160
140 -35 30 -89 77 -120 104 -30 27 -71 63 -90 80 -20 17 -67 58 -105 91 -39
33 -86 74 -105 91 -38 34 -600 523 -640 558 -38 32 -164 142 -257 224 -45 39
-84 72 -85 72 -2 -1 -19 -7 -38 -14z"/>
<path d="M363 2617 c-76 -137 -133 -281 -166 -426 l-14 -61 66 -59 c36 -32
104 -91 151 -131 47 -41 87 -76 90 -79 3 -3 39 -35 80 -71 41 -36 88 -77 105
-91 16 -14 143 -124 280 -244 138 -119 279 -243 315 -274 35 -31 82 -72 105
-91 22 -19 42 -37 45 -40 3 -3 36 -32 75 -65 38 -33 76 -67 85 -75 9 -8 41
-36 71 -62 63 -54 92 -79 134 -116 17 -15 64 -56 105 -92 41 -36 80 -69 86
-75 6 -5 37 -33 70 -61 111 -96 229 -199 259 -226 17 -15 43 -38 59 -52 l29
-25 61 23 c103 39 306 148 371 198 6 5 34 26 62 49 l53 40 -48 41 c-26 23 -74
65 -107 94 -33 29 -69 61 -81 71 -12 10 -50 43 -84 73 -35 30 -156 136 -269
235 -113 98 -214 186 -225 195 -10 8 -30 26 -45 40 -16 14 -50 44 -77 67 -57
48 -78 66 -159 137 -33 29 -134 118 -225 196 -91 79 -239 209 -330 288 -91 80
-192 168 -225 197 -33 29 -139 121 -235 205 -96 84 -202 176 -235 204 -32 28
-77 67 -100 86 -89 78 -74 81 -132 -23z"/>
<path d="M99 1839 c-22 -497 147 -944 486 -1285 331 -334 750 -507 1220 -504
55 0 118 2 140 5 51 5 114 14 140 19 11 3 29 5 40 6 21 1 24 -3 -85 94 -20 17
-67 58 -105 91 -39 33 -86 74 -105 91 -40 36 -412 359 -510 443 -35 31 -71 63
-80 71 -9 8 -45 40 -80 70 -35 30 -71 62 -80 70 -9 8 -45 40 -81 70 -35 30
-69 59 -75 65 -6 5 -40 35 -75 66 -35 31 -105 91 -155 135 -50 43 -119 104
-154 134 -35 30 -140 122 -234 204 -94 82 -179 155 -188 164 -17 14 -18 13
-19 -9z"/>
</g>
</svg>
